<mxfile host="app.diagrams.net" modified="2023-11-02T14:33:45.786Z" agent="Mozilla/5.0 (Windows NT 10.0; Win64; x64) AppleWebKit/537.36 (KHTML, like Gecko) Chrome/118.0.0.0 Safari/537.36 Edg/118.0.2088.76" etag="QD1tmlGn8oxWQKwvTVc0" version="22.0.8" type="device">
  <diagram id="C5RBs43oDa-KdzZeNtuy" name="Page-1">
    <mxGraphModel dx="1619" dy="713" grid="1" gridSize="10" guides="1" tooltips="1" connect="1" arrows="1" fold="1" page="1" pageScale="1" pageWidth="827" pageHeight="1169" math="0" shadow="0">
      <root>
        <mxCell id="WIyWlLk6GJQsqaUBKTNV-0" />
        <mxCell id="WIyWlLk6GJQsqaUBKTNV-1" parent="WIyWlLk6GJQsqaUBKTNV-0" />
        <object label="Customer" id="zkfFHV4jXpPFQw0GAbJ--0">
          <mxCell style="swimlane;fontStyle=2;align=center;verticalAlign=top;childLayout=stackLayout;horizontal=1;startSize=26;horizontalStack=0;resizeParent=1;resizeLast=0;collapsible=1;marginBottom=0;rounded=0;shadow=0;strokeWidth=1;" parent="WIyWlLk6GJQsqaUBKTNV-1" vertex="1">
            <mxGeometry x="210" y="20" width="360" height="240" as="geometry">
              <mxRectangle x="160" y="60" width="160" height="26" as="alternateBounds" />
            </mxGeometry>
          </mxCell>
        </object>
        <mxCell id="zkfFHV4jXpPFQw0GAbJ--1" value="id: int" style="text;align=center;verticalAlign=top;spacingLeft=4;spacingRight=4;overflow=hidden;rotatable=0;points=[[0,0.5],[1,0.5]];portConstraint=eastwest;" parent="zkfFHV4jXpPFQw0GAbJ--0" vertex="1">
          <mxGeometry y="26" width="360" height="26" as="geometry" />
        </mxCell>
        <mxCell id="zkfFHV4jXpPFQw0GAbJ--2" value="name: String" style="text;align=center;verticalAlign=top;spacingLeft=4;spacingRight=4;overflow=hidden;rotatable=0;points=[[0,0.5],[1,0.5]];portConstraint=eastwest;rounded=0;shadow=0;html=0;" parent="zkfFHV4jXpPFQw0GAbJ--0" vertex="1">
          <mxGeometry y="52" width="360" height="26" as="geometry" />
        </mxCell>
        <mxCell id="zkfFHV4jXpPFQw0GAbJ--3" value="contactInfo: String" style="text;align=center;verticalAlign=top;spacingLeft=4;spacingRight=4;overflow=hidden;rotatable=0;points=[[0,0.5],[1,0.5]];portConstraint=eastwest;rounded=0;shadow=0;html=0;" parent="zkfFHV4jXpPFQw0GAbJ--0" vertex="1">
          <mxGeometry y="78" width="360" height="22" as="geometry" />
        </mxCell>
        <mxCell id="1MBlQf8ubZndFx8xTELW-1" value="bankAccount: List&lt;BankAccount&gt;" style="text;align=center;verticalAlign=top;spacingLeft=4;spacingRight=4;overflow=hidden;rotatable=0;points=[[0,0.5],[1,0.5]];portConstraint=eastwest;rounded=0;shadow=0;html=0;" vertex="1" parent="zkfFHV4jXpPFQw0GAbJ--0">
          <mxGeometry y="100" width="360" height="22" as="geometry" />
        </mxCell>
        <mxCell id="1MBlQf8ubZndFx8xTELW-2" value="wallet: double" style="text;align=center;verticalAlign=top;spacingLeft=4;spacingRight=4;overflow=hidden;rotatable=0;points=[[0,0.5],[1,0.5]];portConstraint=eastwest;" vertex="1" parent="zkfFHV4jXpPFQw0GAbJ--0">
          <mxGeometry y="122" width="360" height="26" as="geometry" />
        </mxCell>
        <mxCell id="zkfFHV4jXpPFQw0GAbJ--4" value="" style="line;html=1;strokeWidth=1;align=left;verticalAlign=middle;spacingTop=-1;spacingLeft=3;spacingRight=3;rotatable=0;labelPosition=right;points=[];portConstraint=eastwest;" parent="zkfFHV4jXpPFQw0GAbJ--0" vertex="1">
          <mxGeometry y="148" width="360" height="8" as="geometry" />
        </mxCell>
        <mxCell id="zkfFHV4jXpPFQw0GAbJ--5" value="+Customer(id: int, name:String, contactInfo:String, wallet:double)" style="text;align=left;verticalAlign=top;spacingLeft=4;spacingRight=4;overflow=hidden;rotatable=0;points=[[0,0.5],[1,0.5]];portConstraint=eastwest;" parent="zkfFHV4jXpPFQw0GAbJ--0" vertex="1">
          <mxGeometry y="156" width="360" height="26" as="geometry" />
        </mxCell>
        <mxCell id="1MBlQf8ubZndFx8xTELW-3" value="+addBankAccount(newAccount:BankAccount): void" style="text;align=left;verticalAlign=top;spacingLeft=4;spacingRight=4;overflow=hidden;rotatable=0;points=[[0,0.5],[1,0.5]];portConstraint=eastwest;" vertex="1" parent="zkfFHV4jXpPFQw0GAbJ--0">
          <mxGeometry y="182" width="360" height="26" as="geometry" />
        </mxCell>
        <mxCell id="1MBlQf8ubZndFx8xTELW-4" value="+displayAccountDetails(): void" style="text;align=left;verticalAlign=top;spacingLeft=4;spacingRight=4;overflow=hidden;rotatable=0;points=[[0,0.5],[1,0.5]];portConstraint=eastwest;" vertex="1" parent="zkfFHV4jXpPFQw0GAbJ--0">
          <mxGeometry y="208" width="360" height="22" as="geometry" />
        </mxCell>
        <object label="BankAccount" id="1MBlQf8ubZndFx8xTELW-5">
          <mxCell style="swimlane;fontStyle=2;align=center;verticalAlign=top;childLayout=stackLayout;horizontal=1;startSize=26;horizontalStack=0;resizeParent=1;resizeLast=0;collapsible=1;marginBottom=0;rounded=0;shadow=0;strokeWidth=1;" vertex="1" parent="WIyWlLk6GJQsqaUBKTNV-1">
            <mxGeometry x="820" y="36" width="390" height="190" as="geometry">
              <mxRectangle x="160" y="60" width="160" height="26" as="alternateBounds" />
            </mxGeometry>
          </mxCell>
        </object>
        <mxCell id="1MBlQf8ubZndFx8xTELW-6" value="accountNumber: int" style="text;align=center;verticalAlign=top;spacingLeft=4;spacingRight=4;overflow=hidden;rotatable=0;points=[[0,0.5],[1,0.5]];portConstraint=eastwest;" vertex="1" parent="1MBlQf8ubZndFx8xTELW-5">
          <mxGeometry y="26" width="390" height="26" as="geometry" />
        </mxCell>
        <mxCell id="1MBlQf8ubZndFx8xTELW-7" value="accountType: String" style="text;align=center;verticalAlign=top;spacingLeft=4;spacingRight=4;overflow=hidden;rotatable=0;points=[[0,0.5],[1,0.5]];portConstraint=eastwest;rounded=0;shadow=0;html=0;" vertex="1" parent="1MBlQf8ubZndFx8xTELW-5">
          <mxGeometry y="52" width="390" height="26" as="geometry" />
        </mxCell>
        <mxCell id="1MBlQf8ubZndFx8xTELW-8" value="balance: double" style="text;align=center;verticalAlign=top;spacingLeft=4;spacingRight=4;overflow=hidden;rotatable=0;points=[[0,0.5],[1,0.5]];portConstraint=eastwest;rounded=0;shadow=0;html=0;" vertex="1" parent="1MBlQf8ubZndFx8xTELW-5">
          <mxGeometry y="78" width="390" height="22" as="geometry" />
        </mxCell>
        <mxCell id="1MBlQf8ubZndFx8xTELW-9" value="transactionList: List&lt;Transaction&gt;" style="text;align=center;verticalAlign=top;spacingLeft=4;spacingRight=4;overflow=hidden;rotatable=0;points=[[0,0.5],[1,0.5]];portConstraint=eastwest;rounded=0;shadow=0;html=0;" vertex="1" parent="1MBlQf8ubZndFx8xTELW-5">
          <mxGeometry y="100" width="390" height="22" as="geometry" />
        </mxCell>
        <mxCell id="1MBlQf8ubZndFx8xTELW-11" value="" style="line;html=1;strokeWidth=1;align=left;verticalAlign=middle;spacingTop=-1;spacingLeft=3;spacingRight=3;rotatable=0;labelPosition=right;points=[];portConstraint=eastwest;" vertex="1" parent="1MBlQf8ubZndFx8xTELW-5">
          <mxGeometry y="122" width="390" height="8" as="geometry" />
        </mxCell>
        <mxCell id="1MBlQf8ubZndFx8xTELW-12" value="+BankAccount(accountNumber:int, accountType:String, balance:double)" style="text;align=left;verticalAlign=top;spacingLeft=4;spacingRight=4;overflow=hidden;rotatable=0;points=[[0,0.5],[1,0.5]];portConstraint=eastwest;" vertex="1" parent="1MBlQf8ubZndFx8xTELW-5">
          <mxGeometry y="130" width="390" height="26" as="geometry" />
        </mxCell>
        <mxCell id="1MBlQf8ubZndFx8xTELW-14" value="+displayAccount(): void" style="text;align=left;verticalAlign=top;spacingLeft=4;spacingRight=4;overflow=hidden;rotatable=0;points=[[0,0.5],[1,0.5]];portConstraint=eastwest;" vertex="1" parent="1MBlQf8ubZndFx8xTELW-5">
          <mxGeometry y="156" width="390" height="26" as="geometry" />
        </mxCell>
        <object label="Transaction" id="1MBlQf8ubZndFx8xTELW-15">
          <mxCell style="swimlane;fontStyle=2;align=center;verticalAlign=top;childLayout=stackLayout;horizontal=1;startSize=26;horizontalStack=0;resizeParent=1;resizeLast=0;collapsible=1;marginBottom=0;rounded=0;shadow=0;strokeWidth=1;" vertex="1" parent="WIyWlLk6GJQsqaUBKTNV-1">
            <mxGeometry x="60" y="390" width="620" height="310" as="geometry">
              <mxRectangle x="160" y="60" width="160" height="26" as="alternateBounds" />
            </mxGeometry>
          </mxCell>
        </object>
        <mxCell id="1MBlQf8ubZndFx8xTELW-16" value="id: int" style="text;align=center;verticalAlign=top;spacingLeft=4;spacingRight=4;overflow=hidden;rotatable=0;points=[[0,0.5],[1,0.5]];portConstraint=eastwest;" vertex="1" parent="1MBlQf8ubZndFx8xTELW-15">
          <mxGeometry y="26" width="620" height="26" as="geometry" />
        </mxCell>
        <mxCell id="1MBlQf8ubZndFx8xTELW-17" value="customer: Customer" style="text;align=center;verticalAlign=top;spacingLeft=4;spacingRight=4;overflow=hidden;rotatable=0;points=[[0,0.5],[1,0.5]];portConstraint=eastwest;rounded=0;shadow=0;html=0;" vertex="1" parent="1MBlQf8ubZndFx8xTELW-15">
          <mxGeometry y="52" width="620" height="26" as="geometry" />
        </mxCell>
        <mxCell id="1MBlQf8ubZndFx8xTELW-18" value="sourceAccount: BankAccount" style="text;align=center;verticalAlign=top;spacingLeft=4;spacingRight=4;overflow=hidden;rotatable=0;points=[[0,0.5],[1,0.5]];portConstraint=eastwest;rounded=0;shadow=0;html=0;" vertex="1" parent="1MBlQf8ubZndFx8xTELW-15">
          <mxGeometry y="78" width="620" height="22" as="geometry" />
        </mxCell>
        <mxCell id="1MBlQf8ubZndFx8xTELW-19" value="destinationAccount: BankAccount" style="text;align=center;verticalAlign=top;spacingLeft=4;spacingRight=4;overflow=hidden;rotatable=0;points=[[0,0.5],[1,0.5]];portConstraint=eastwest;rounded=0;shadow=0;html=0;" vertex="1" parent="1MBlQf8ubZndFx8xTELW-15">
          <mxGeometry y="100" width="620" height="22" as="geometry" />
        </mxCell>
        <mxCell id="1MBlQf8ubZndFx8xTELW-20" value="transactionType: String" style="text;align=center;verticalAlign=top;spacingLeft=4;spacingRight=4;overflow=hidden;rotatable=0;points=[[0,0.5],[1,0.5]];portConstraint=eastwest;" vertex="1" parent="1MBlQf8ubZndFx8xTELW-15">
          <mxGeometry y="122" width="620" height="26" as="geometry" />
        </mxCell>
        <mxCell id="1MBlQf8ubZndFx8xTELW-25" value="ammount: double" style="text;align=center;verticalAlign=top;spacingLeft=4;spacingRight=4;overflow=hidden;rotatable=0;points=[[0,0.5],[1,0.5]];portConstraint=eastwest;" vertex="1" parent="1MBlQf8ubZndFx8xTELW-15">
          <mxGeometry y="148" width="620" height="26" as="geometry" />
        </mxCell>
        <mxCell id="1MBlQf8ubZndFx8xTELW-21" value="" style="line;html=1;strokeWidth=1;align=left;verticalAlign=middle;spacingTop=-1;spacingLeft=3;spacingRight=3;rotatable=0;labelPosition=right;points=[];portConstraint=eastwest;" vertex="1" parent="1MBlQf8ubZndFx8xTELW-15">
          <mxGeometry y="174" width="620" height="8" as="geometry" />
        </mxCell>
        <mxCell id="1MBlQf8ubZndFx8xTELW-22" value="+Transaction(id:int, customer:Customer, sourceAccount:BankAccount, destinationAccount, transactionType:String)" style="text;align=left;verticalAlign=top;spacingLeft=4;spacingRight=4;overflow=hidden;rotatable=0;points=[[0,0.5],[1,0.5]];portConstraint=eastwest;" vertex="1" parent="1MBlQf8ubZndFx8xTELW-15">
          <mxGeometry y="182" width="620" height="26" as="geometry" />
        </mxCell>
        <mxCell id="1MBlQf8ubZndFx8xTELW-23" value="+setTransactionType(transactionType:String): void" style="text;align=left;verticalAlign=top;spacingLeft=4;spacingRight=4;overflow=hidden;rotatable=0;points=[[0,0.5],[1,0.5]];portConstraint=eastwest;" vertex="1" parent="1MBlQf8ubZndFx8xTELW-15">
          <mxGeometry y="208" width="620" height="26" as="geometry" />
        </mxCell>
        <mxCell id="1MBlQf8ubZndFx8xTELW-24" value="+Transfer(ammount:double): void" style="text;align=left;verticalAlign=top;spacingLeft=4;spacingRight=4;overflow=hidden;rotatable=0;points=[[0,0.5],[1,0.5]];portConstraint=eastwest;" vertex="1" parent="1MBlQf8ubZndFx8xTELW-15">
          <mxGeometry y="234" width="620" height="16" as="geometry" />
        </mxCell>
        <mxCell id="1MBlQf8ubZndFx8xTELW-27" value="+Withdraw(ammount:double): void" style="text;align=left;verticalAlign=top;spacingLeft=4;spacingRight=4;overflow=hidden;rotatable=0;points=[[0,0.5],[1,0.5]];portConstraint=eastwest;" vertex="1" parent="1MBlQf8ubZndFx8xTELW-15">
          <mxGeometry y="250" width="620" height="30" as="geometry" />
        </mxCell>
        <mxCell id="1MBlQf8ubZndFx8xTELW-28" value="+Deposit(ammount:double): void" style="text;align=left;verticalAlign=top;spacingLeft=4;spacingRight=4;overflow=hidden;rotatable=0;points=[[0,0.5],[1,0.5]];portConstraint=eastwest;" vertex="1" parent="1MBlQf8ubZndFx8xTELW-15">
          <mxGeometry y="280" width="620" height="26" as="geometry" />
        </mxCell>
        <mxCell id="1MBlQf8ubZndFx8xTELW-46" style="edgeStyle=orthogonalEdgeStyle;rounded=0;orthogonalLoop=1;jettySize=auto;html=1;entryX=1;entryY=0.5;entryDx=0;entryDy=0;" edge="1" parent="WIyWlLk6GJQsqaUBKTNV-1" source="1MBlQf8ubZndFx8xTELW-29" target="1MBlQf8ubZndFx8xTELW-25">
          <mxGeometry relative="1" as="geometry" />
        </mxCell>
        <object label="BankStaff" id="1MBlQf8ubZndFx8xTELW-29">
          <mxCell style="swimlane;fontStyle=2;align=center;verticalAlign=top;childLayout=stackLayout;horizontal=1;startSize=26;horizontalStack=0;resizeParent=1;resizeLast=0;collapsible=1;marginBottom=0;rounded=0;shadow=0;strokeWidth=1;" vertex="1" parent="WIyWlLk6GJQsqaUBKTNV-1">
            <mxGeometry x="820" y="480" width="390" height="134" as="geometry">
              <mxRectangle x="160" y="60" width="160" height="26" as="alternateBounds" />
            </mxGeometry>
          </mxCell>
        </object>
        <mxCell id="1MBlQf8ubZndFx8xTELW-30" value="id:int" style="text;align=center;verticalAlign=top;spacingLeft=4;spacingRight=4;overflow=hidden;rotatable=0;points=[[0,0.5],[1,0.5]];portConstraint=eastwest;" vertex="1" parent="1MBlQf8ubZndFx8xTELW-29">
          <mxGeometry y="26" width="390" height="26" as="geometry" />
        </mxCell>
        <mxCell id="1MBlQf8ubZndFx8xTELW-31" value="name:String" style="text;align=center;verticalAlign=top;spacingLeft=4;spacingRight=4;overflow=hidden;rotatable=0;points=[[0,0.5],[1,0.5]];portConstraint=eastwest;rounded=0;shadow=0;html=0;" vertex="1" parent="1MBlQf8ubZndFx8xTELW-29">
          <mxGeometry y="52" width="390" height="26" as="geometry" />
        </mxCell>
        <mxCell id="1MBlQf8ubZndFx8xTELW-32" value="position:String" style="text;align=center;verticalAlign=top;spacingLeft=4;spacingRight=4;overflow=hidden;rotatable=0;points=[[0,0.5],[1,0.5]];portConstraint=eastwest;rounded=0;shadow=0;html=0;" vertex="1" parent="1MBlQf8ubZndFx8xTELW-29">
          <mxGeometry y="78" width="390" height="22" as="geometry" />
        </mxCell>
        <mxCell id="1MBlQf8ubZndFx8xTELW-34" value="" style="line;html=1;strokeWidth=1;align=left;verticalAlign=middle;spacingTop=-1;spacingLeft=3;spacingRight=3;rotatable=0;labelPosition=right;points=[];portConstraint=eastwest;" vertex="1" parent="1MBlQf8ubZndFx8xTELW-29">
          <mxGeometry y="100" width="390" height="8" as="geometry" />
        </mxCell>
        <mxCell id="1MBlQf8ubZndFx8xTELW-35" value="+BankStaff(id:int, name:String, position:String)" style="text;align=left;verticalAlign=top;spacingLeft=4;spacingRight=4;overflow=hidden;rotatable=0;points=[[0,0.5],[1,0.5]];portConstraint=eastwest;" vertex="1" parent="1MBlQf8ubZndFx8xTELW-29">
          <mxGeometry y="108" width="390" height="26" as="geometry" />
        </mxCell>
        <mxCell id="1MBlQf8ubZndFx8xTELW-38" style="edgeStyle=orthogonalEdgeStyle;rounded=0;orthogonalLoop=1;jettySize=auto;html=1;" edge="1" parent="WIyWlLk6GJQsqaUBKTNV-1" source="1MBlQf8ubZndFx8xTELW-1" target="1MBlQf8ubZndFx8xTELW-5">
          <mxGeometry relative="1" as="geometry" />
        </mxCell>
        <mxCell id="1MBlQf8ubZndFx8xTELW-43" style="edgeStyle=orthogonalEdgeStyle;rounded=0;orthogonalLoop=1;jettySize=auto;html=1;" edge="1" parent="WIyWlLk6GJQsqaUBKTNV-1" source="1MBlQf8ubZndFx8xTELW-19" target="1MBlQf8ubZndFx8xTELW-9">
          <mxGeometry relative="1" as="geometry" />
        </mxCell>
        <mxCell id="1MBlQf8ubZndFx8xTELW-45" style="edgeStyle=orthogonalEdgeStyle;rounded=0;orthogonalLoop=1;jettySize=auto;html=1;entryX=0.597;entryY=0.032;entryDx=0;entryDy=0;entryPerimeter=0;" edge="1" parent="WIyWlLk6GJQsqaUBKTNV-1" source="zkfFHV4jXpPFQw0GAbJ--0" target="1MBlQf8ubZndFx8xTELW-15">
          <mxGeometry relative="1" as="geometry" />
        </mxCell>
      </root>
    </mxGraphModel>
  </diagram>
</mxfile>
